<svg width="292" height="60" viewBox="0 0 292 60" fill="none" xmlns="http://www.w3.org/2000/svg">
<path d="M6.8767 36.3462C7.64078 36.7308 8.7869 36.9231 10.3151 36.9231H11.4612C11.7821 36.9231 12.0495 36.8154 12.2634 36.6C12.4927 36.3692 12.6073 36.0923 12.6073 35.7692C12.6073 35.4462 12.4927 35.1769 12.2634 34.9615C12.0495 34.7308 11.7821 34.6154 11.4612 34.6154H10.3151C7.47268 34.6154 5.04291 33.6 3.02575 31.5692C1.00858 29.5385 0 27.0923 0 24.2308C0 21.3692 1.00858 18.9231 3.02575 16.8923C5.04291 14.8615 7.47268 13.8462 10.3151 13.8462H13.7534C16.0304 13.8462 18.0475 14.5 19.8049 15.8077C19.9119 15.8846 20.0112 15.9615 20.1029 16.0385C20.4238 16.3 20.7371 16.5846 21.0427 16.8923C20.9969 16.9077 20.9587 16.9154 20.9281 16.9154C21.4935 17.7 21.7762 18.6 21.7762 19.6154C21.7762 20.8923 21.3254 21.9846 20.4238 22.8923C19.5375 23.7846 18.4601 24.2308 17.1918 24.2308C16.4277 24.2308 15.6636 24.0385 14.8995 23.6538C14.1354 23.2692 12.9893 23.0769 11.4612 23.0769H10.3151C9.99414 23.0769 9.71907 23.1923 9.48985 23.4231C9.27591 23.6385 9.16893 23.9077 9.16893 24.2308C9.16893 24.5538 9.27591 24.8308 9.48985 25.0615C9.71907 25.2769 9.99414 25.3846 10.3151 25.3846H11.4612C14.3035 25.3846 16.7333 26.4 18.7505 28.4308C20.7676 30.4615 21.7762 32.9077 21.7762 35.7692C21.7762 38.6308 20.7676 41.0769 18.7505 43.1077C16.7333 45.1385 14.3035 46.1538 11.4612 46.1538H8.02282C5.74587 46.1538 3.7287 45.5 1.97132 44.1923C1.86435 44.1154 1.76502 44.0385 1.67333 43.9615C1.35242 43.7 1.03915 43.4154 0.733515 43.1077C0.748796 43.0769 0.771719 43.0385 0.802282 42.9923C0.267427 42.2385 0 41.3692 0 40.3846C0 39.1077 0.443165 38.0231 1.3295 37.1308C2.23111 36.2231 3.3161 35.7692 4.58447 35.7692C5.31798 35.7692 6.08206 35.9615 6.8767 36.3462Z" fill="#223CB7"/>
<path d="M172.231 17.8846C174.905 15.1923 178.152 13.8462 181.973 13.8462C185.778 13.8462 189.018 15.2 191.692 17.9077C194.381 20.6 195.726 23.8615 195.726 27.6923V41.5385C195.726 42.8154 195.275 43.9077 194.374 44.8154C193.487 45.7077 192.41 46.1538 191.142 46.1538C189.873 46.1538 188.788 45.7077 187.887 44.8154C187 43.9077 186.557 42.8154 186.557 41.5385V27.6923C186.557 26.4154 186.106 25.3308 185.205 24.4385C184.319 23.5308 183.241 23.0769 181.973 23.0769C180.704 23.0769 179.619 23.5308 178.718 24.4385C177.831 25.3308 177.388 26.4154 177.388 27.6923V41.5385C177.388 42.8154 176.938 43.9077 176.036 44.8154C175.15 45.7077 174.072 46.1538 172.804 46.1538C171.535 46.1538 170.45 45.7077 169.549 44.8154C168.663 43.9077 168.219 42.8154 168.219 41.5385V27.6923C168.219 23.8462 169.557 20.5769 172.231 17.8846Z" fill="#223CB7"/>
<path d="M209.48 41.5385C209.48 42.8154 209.029 43.9077 208.127 44.8154C207.241 45.7077 206.163 46.1538 204.895 46.1538C203.627 46.1538 202.542 45.7077 201.64 44.8154C200.754 43.9077 200.311 42.8154 200.311 41.5385V13.8462C200.311 12.5692 200.754 11.4846 201.64 10.5923C202.542 9.68462 203.627 9.23077 204.895 9.23077C206.163 9.23077 207.241 9.68462 208.127 10.5923C209.029 11.4846 209.48 12.5692 209.48 13.8462V41.5385Z" fill="#223CB7"/>
<path d="M223.233 41.5385C223.233 42.8154 222.782 43.9077 221.881 44.8154C220.994 45.7077 219.917 46.1538 218.649 46.1538C217.38 46.1538 216.295 45.7077 215.394 44.8154C214.507 43.9077 214.064 42.8154 214.064 41.5385V18.4615C214.064 17.1846 214.507 16.1 215.394 15.2077C216.295 14.3 217.38 13.8462 218.649 13.8462C219.917 13.8462 220.994 14.3 221.881 15.2077C222.782 16.1 223.233 17.1846 223.233 18.4615V41.5385ZM218.649 9.23077C217.38 9.23077 216.295 8.78462 215.394 7.89231C214.507 6.98462 214.064 5.89231 214.064 4.61538C214.064 3.33846 214.507 2.25385 215.394 1.36154C216.295 0.453846 217.38 0 218.649 0C219.917 0 220.994 0.453846 221.881 1.36154C222.782 2.25385 223.233 3.33846 223.233 4.61538C223.233 5.89231 222.782 6.98462 221.881 7.89231C220.994 8.78462 219.917 9.23077 218.649 9.23077Z" fill="#223CB7"/>
<path d="M231.829 17.8846C234.503 15.1923 237.75 13.8462 241.571 13.8462C245.376 13.8462 248.616 15.2 251.29 17.9077C253.979 20.6 255.324 23.8615 255.324 27.6923V41.5385C255.324 42.8154 254.873 43.9077 253.972 44.8154C253.086 45.7077 252.008 46.1538 250.74 46.1538C249.471 46.1538 248.386 45.7077 247.485 44.8154C246.598 43.9077 246.155 42.8154 246.155 41.5385V27.6923C246.155 26.4154 245.705 25.3308 244.803 24.4385C243.917 23.5308 242.839 23.0769 241.571 23.0769C240.302 23.0769 239.217 23.5308 238.316 24.4385C237.43 25.3308 236.986 26.4154 236.986 27.6923V41.5385C236.986 42.8154 236.536 43.9077 235.634 44.8154C234.748 45.7077 233.67 46.1538 232.402 46.1538C231.134 46.1538 230.049 45.7077 229.147 44.8154C228.261 43.9077 227.817 42.8154 227.817 41.5385V27.6923C227.817 23.8462 229.155 20.5769 231.829 17.8846Z" fill="#223CB7"/>
<path d="M270.843 34.6154C270.919 34.7077 271.003 34.8 271.095 34.8923C272.44 36.2462 274.059 36.9231 275.954 36.9231H282.831C284.099 36.9231 285.177 37.3769 286.063 38.2846C286.965 39.1769 287.416 40.2615 287.416 41.5385C287.416 42.8154 286.965 43.9077 286.063 44.8154C285.177 45.7077 284.099 46.1538 282.831 46.1538H275.954C271.523 46.1538 267.741 44.5769 264.608 41.4231C261.475 38.2692 259.909 34.4615 259.909 30C259.909 25.5385 261.475 21.7308 264.608 18.5769C267.741 15.4231 271.523 13.8462 275.954 13.8462C280.386 13.8462 284.168 15.4231 287.301 18.5769C290.434 21.7308 292 25.5385 292 30C292 31.2769 291.549 32.3692 290.648 33.2769C289.761 34.1692 288.684 34.6154 287.416 34.6154H270.843ZM281.066 25.3846C280.99 25.2923 280.906 25.2 280.814 25.1077C279.469 23.7538 277.849 23.0769 275.954 23.0769C274.059 23.0769 272.44 23.7538 271.095 25.1077C271.003 25.2 270.919 25.2923 270.843 25.3846H281.066Z" fill="#223CB7"/>
<path d="M47.0443 17.8846C49.7185 15.1923 52.9659 13.8462 56.7863 13.8462C60.5914 13.8462 63.8311 15.2 66.5053 17.9077C69.1949 20.6 70.5397 23.8615 70.5397 27.6923V41.5385C70.5397 42.8154 70.0889 43.9077 69.1872 44.8154C68.3009 45.7077 67.2236 46.1538 65.9552 46.1538C64.6868 46.1538 63.6018 45.7077 62.7002 44.8154C61.8139 43.9077 61.3707 42.8154 61.3707 41.5385V27.6923C61.3707 26.4154 60.9199 25.3308 60.0183 24.4385C59.132 23.5308 58.0546 23.0769 56.7863 23.0769C55.5179 23.0769 54.4329 23.5308 53.5313 24.4385C52.645 25.3308 52.2018 26.4154 52.2018 27.6923V41.5385C52.2018 42.8154 51.751 43.9077 50.8494 44.8154C49.9631 45.7077 48.8857 46.1538 47.6173 46.1538C46.349 46.1538 45.264 45.7077 44.3624 44.8154C43.476 43.9077 43.0329 42.8154 43.0329 41.5385V27.6923C43.0329 23.8462 44.37 20.5769 47.0443 17.8846Z" fill="#223CB7"/>
<path d="M91.1698 36.9231C93.0647 36.9231 94.6845 36.2462 96.0293 34.8923C97.3741 33.5385 98.0465 31.9077 98.0465 30C98.0465 28.0923 97.3741 26.4615 96.0293 25.1077C94.6845 23.7538 93.0647 23.0769 91.1698 23.0769C89.2749 23.0769 87.655 23.7538 86.3102 25.1077C84.9655 26.4615 84.2931 28.0923 84.2931 30C84.2931 31.9077 84.9655 33.5385 86.3102 34.8923C87.655 36.2462 89.2749 36.9231 91.1698 36.9231ZM98.0465 44.6538C95.9682 45.6538 93.6759 46.1538 91.1698 46.1538C86.7381 46.1538 82.9559 44.5769 79.8232 41.4231C76.6905 38.2692 75.1241 34.4615 75.1241 30C75.1241 25.5385 76.6905 21.7308 79.8232 18.5769C82.9559 15.4231 86.7381 13.8462 91.1698 13.8462C95.7542 13.8462 99.5746 15.3846 102.631 18.4615C105.687 21.5385 107.215 25.3846 107.215 30V46.1538C107.215 49.9846 105.871 53.2462 103.181 55.9385C100.507 58.6462 97.2671 60 93.462 60C92.1936 60 91.1086 59.5462 90.207 58.6385C89.3207 57.7462 88.8775 56.6615 88.8775 55.3846C88.8775 54.1077 89.3207 53.0154 90.207 52.1077C91.1086 51.2154 92.1936 50.7692 93.462 50.7692C94.7304 50.7692 95.8077 50.3154 96.6941 49.4077C97.5957 48.5154 98.0465 47.4308 98.0465 46.1538V44.6538Z" fill="#223CB7"/>
<path d="M32.2336 3.536C28.0421 3.49906 24.6012 6.90308 24.5625 11.1248C24.5423 13.4461 25.5884 15.6395 27.3636 17.1034L28.2013 44.8772C28.2238 45.6489 28.8485 46.2642 29.6157 46.271L34.108 46.3106C34.5017 46.314 34.8605 46.1566 35.1212 45.8987C35.3686 45.6539 35.529 45.3179 35.5464 44.942L36.8671 17.1708C37.0796 17.001 37.301 16.8403 37.4925 16.6509C38.9202 15.2385 39.7538 13.3015 39.7715 11.2587C39.8093 7.03809 36.427 3.5729 32.2336 3.536Z" fill="#223CB7"/>
<path d="M144.943 18.3621C143.651 17.9023 142.247 17.8683 140.935 18.2648C139.623 18.6614 138.47 19.468 137.643 20.568C136.817 21.668 136.359 23.0042 136.337 24.3833C136.315 25.7625 136.729 27.113 137.519 28.2394C138.31 29.3658 139.436 30.2097 140.735 30.649C142.034 31.0883 143.438 31.1001 144.744 30.6828C146.05 30.2656 147.19 29.4408 147.999 28.3279C148.808 27.2149 149.245 25.8716 149.246 24.4923V3.82287C157.975 6.58255 164.307 14.7923 164.307 24.4923C164.307 36.456 154.674 46.1538 142.791 46.1538C130.907 46.1538 121.274 36.456 121.274 24.4923C121.274 12.5286 130.907 2.83077 142.791 2.83077C143.516 2.83077 144.235 2.86759 144.943 2.93908V18.3621Z" fill="#223CB7"/>
</svg>
