<svg width="267" height="54" viewBox="0 0 267 54" fill="none" xmlns="http://www.w3.org/2000/svg">
<path d="M6.28794 32.7115C6.9866 33.0577 8.03459 33.2308 9.43191 33.2308H10.4799C10.7733 33.2308 11.0179 33.1338 11.2135 32.94C11.4231 32.7323 11.5279 32.4831 11.5279 32.1923C11.5279 31.9015 11.4231 31.6592 11.2135 31.4654C11.0179 31.2577 10.7733 31.1538 10.4799 31.1538H9.43191C6.8329 31.1538 4.61116 30.24 2.76669 28.4123C0.922232 26.5846 0 24.3831 0 21.8077C0 19.2323 0.922232 17.0308 2.76669 15.2031C4.61116 13.3754 6.8329 12.4615 9.43191 12.4615H12.5759C14.6579 12.4615 16.5024 13.05 18.1093 14.2269C18.2071 14.2962 18.2979 14.3654 18.3818 14.4346C18.6752 14.67 18.9616 14.9262 19.2411 15.2031C19.1992 15.2169 19.1643 15.2238 19.1363 15.2238C19.6533 15.93 19.9118 16.74 19.9118 17.6538C19.9118 18.8031 19.4996 19.7862 18.6752 20.6031C17.8647 21.4062 16.8796 21.8077 15.7199 21.8077C15.0212 21.8077 14.3225 21.6346 13.6239 21.2885C12.9252 20.9423 11.8772 20.7692 10.4799 20.7692H9.43191C9.13848 20.7692 8.88696 20.8731 8.67736 21.0808C8.48174 21.2746 8.38392 21.5169 8.38392 21.8077C8.38392 22.0985 8.48174 22.3477 8.67736 22.5554C8.88696 22.7492 9.13848 22.8462 9.43191 22.8462H10.4799C13.0789 22.8462 15.3007 23.76 17.1451 25.5877C18.9896 27.4154 19.9118 29.6169 19.9118 32.1923C19.9118 34.7677 18.9896 36.9692 17.1451 38.7969C15.3007 40.6246 13.0789 41.5385 10.4799 41.5385H7.33593C5.25393 41.5385 3.40946 40.95 1.80254 39.7731C1.70473 39.7038 1.61391 39.6346 1.53007 39.5654C1.23663 39.33 0.950178 39.0738 0.670714 38.7969C0.684687 38.7692 0.705647 38.7346 0.733593 38.6931C0.244531 38.0146 0 37.2323 0 36.3462C0 35.1969 0.405223 34.2208 1.21567 33.4177C2.04009 32.6008 3.03219 32.1923 4.19196 32.1923C4.86268 32.1923 5.56134 32.3654 6.28794 32.7115Z" fill="white"/>
<path d="M157.485 16.0962C159.93 13.6731 162.9 12.4615 166.393 12.4615C169.872 12.4615 172.835 13.68 175.28 16.1169C177.739 18.54 178.969 21.4754 178.969 24.9231V37.3846C178.969 38.5338 178.557 39.5169 177.732 40.3338C176.922 41.1369 175.937 41.5385 174.777 41.5385C173.617 41.5385 172.625 41.1369 171.801 40.3338C170.99 39.5169 170.585 38.5338 170.585 37.3846V24.9231C170.585 23.7738 170.173 22.7977 169.348 21.9946C168.538 21.1777 167.553 20.7692 166.393 20.7692C165.233 20.7692 164.241 21.1777 163.417 21.9946C162.606 22.7977 162.201 23.7738 162.201 24.9231V37.3846C162.201 38.5338 161.789 39.5169 160.964 40.3338C160.154 41.1369 159.169 41.5385 158.009 41.5385C156.849 41.5385 155.857 41.1369 155.033 40.3338C154.222 39.5169 153.817 38.5338 153.817 37.3846V24.9231C153.817 21.4615 155.04 18.5192 157.485 16.0962Z" fill="white"/>
<path d="M191.545 37.3846C191.545 38.5338 191.132 39.5169 190.308 40.3338C189.498 41.1369 188.513 41.5385 187.353 41.5385C186.193 41.5385 185.201 41.1369 184.376 40.3338C183.566 39.5169 183.161 38.5338 183.161 37.3846V12.4615C183.161 11.3123 183.566 10.3362 184.376 9.53308C185.201 8.71615 186.193 8.30769 187.353 8.30769C188.513 8.30769 189.498 8.71615 190.308 9.53308C191.132 10.3362 191.545 11.3123 191.545 12.4615V37.3846Z" fill="white"/>
<path d="M204.121 37.3846C204.121 38.5338 203.708 39.5169 202.884 40.3338C202.074 41.1369 201.088 41.5385 199.929 41.5385C198.769 41.5385 197.777 41.1369 196.952 40.3338C196.142 39.5169 195.737 38.5338 195.737 37.3846V16.6154C195.737 15.4662 196.142 14.49 196.952 13.6869C197.777 12.87 198.769 12.4615 199.929 12.4615C201.088 12.4615 202.074 12.87 202.884 13.6869C203.708 14.49 204.121 15.4662 204.121 16.6154V37.3846ZM199.929 8.30769C198.769 8.30769 197.777 7.90615 196.952 7.10308C196.142 6.28615 195.737 5.30308 195.737 4.15385C195.737 3.00462 196.142 2.02846 196.952 1.22538C197.777 0.408462 198.769 0 199.929 0C201.088 0 202.074 0.408462 202.884 1.22538C203.708 2.02846 204.121 3.00462 204.121 4.15385C204.121 5.30308 203.708 6.28615 202.884 7.10308C202.074 7.90615 201.088 8.30769 199.929 8.30769Z" fill="white"/>
<path d="M211.981 16.0962C214.426 13.6731 217.395 12.4615 220.888 12.4615C224.368 12.4615 227.33 13.68 229.775 16.1169C232.235 18.54 233.464 21.4754 233.464 24.9231V37.3846C233.464 38.5338 233.052 39.5169 232.228 40.3338C231.417 41.1369 230.432 41.5385 229.272 41.5385C228.113 41.5385 227.12 41.1369 226.296 40.3338C225.486 39.5169 225.08 38.5338 225.08 37.3846V24.9231C225.08 23.7738 224.668 22.7977 223.844 21.9946C223.033 21.1777 222.048 20.7692 220.888 20.7692C219.729 20.7692 218.737 21.1777 217.912 21.9946C217.102 22.7977 216.696 23.7738 216.696 24.9231V37.3846C216.696 38.5338 216.284 39.5169 215.46 40.3338C214.649 41.1369 213.664 41.5385 212.505 41.5385C211.345 41.5385 210.353 41.1369 209.528 40.3338C208.718 39.5169 208.313 38.5338 208.313 37.3846V24.9231C208.313 21.4615 209.535 18.5192 211.981 16.0962Z" fill="white"/>
<path d="M247.654 31.1538C247.724 31.2369 247.801 31.32 247.885 31.4031C249.114 32.6215 250.595 33.2308 252.328 33.2308H258.616C259.776 33.2308 260.761 33.6392 261.571 34.4562C262.396 35.2592 262.808 36.2354 262.808 37.3846C262.808 38.5338 262.396 39.5169 261.571 40.3338C260.761 41.1369 259.776 41.5385 258.616 41.5385H252.328C248.276 41.5385 244.818 40.1192 241.953 37.2808C239.089 34.4423 237.656 31.0154 237.656 27C237.656 22.9846 239.089 19.5577 241.953 16.7192C244.818 13.8808 248.276 12.4615 252.328 12.4615C256.38 12.4615 259.839 13.8808 262.703 16.7192C265.568 19.5577 267 22.9846 267 27C267 28.1492 266.588 29.1323 265.763 29.9492C264.953 30.7523 263.968 31.1538 262.808 31.1538H247.654ZM257.002 22.8462C256.932 22.7631 256.855 22.68 256.772 22.5969C255.542 21.3785 254.061 20.7692 252.328 20.7692C250.595 20.7692 249.114 21.3785 247.885 22.5969C247.801 22.68 247.724 22.7631 247.654 22.8462H257.002Z" fill="white"/>
<path d="M43.0165 16.0962C45.4618 13.6731 48.4311 12.4615 51.9244 12.4615C55.4038 12.4615 58.3661 13.68 60.8114 16.1169C63.2707 18.54 64.5003 21.4754 64.5003 24.9231V37.3846C64.5003 38.5338 64.0881 39.5169 63.2637 40.3338C62.4532 41.1369 61.4681 41.5385 60.3084 41.5385C59.1486 41.5385 58.1565 41.1369 57.3321 40.3338C56.5216 39.5169 56.1164 38.5338 56.1164 37.3846V24.9231C56.1164 23.7738 55.7042 22.7977 54.8798 21.9946C54.0693 21.1777 53.0842 20.7692 51.9244 20.7692C50.7647 20.7692 49.7726 21.1777 48.9481 21.9946C48.1377 22.7977 47.7325 23.7738 47.7325 24.9231V37.3846C47.7325 38.5338 47.3203 39.5169 46.4958 40.3338C45.6854 41.1369 44.7003 41.5385 43.5405 41.5385C42.3807 41.5385 41.3886 41.1369 40.5642 40.3338C39.7538 39.5169 39.3485 38.5338 39.3485 37.3846V24.9231C39.3485 21.4615 40.5712 18.5192 43.0165 16.0962Z" fill="white"/>
<path d="M83.3641 33.2308C85.0968 33.2308 86.578 32.6215 87.8076 31.4031C89.0373 30.1846 89.6521 28.7169 89.6521 27C89.6521 25.2831 89.0373 23.8154 87.8076 22.5969C86.578 21.3785 85.0968 20.7692 83.3641 20.7692C81.6315 20.7692 80.1503 21.3785 78.9207 22.5969C77.691 23.8154 77.0762 25.2831 77.0762 27C77.0762 28.7169 77.691 30.1846 78.9207 31.4031C80.1503 32.6215 81.6315 33.2308 83.3641 33.2308ZM89.6521 40.1885C87.7517 41.0885 85.6557 41.5385 83.3641 41.5385C79.3119 41.5385 75.8535 40.1192 72.989 37.2808C70.1245 34.4423 68.6923 31.0154 68.6923 27C68.6923 22.9846 70.1245 19.5577 72.989 16.7192C75.8535 13.8808 79.3119 12.4615 83.3641 12.4615C87.5561 12.4615 91.0494 13.8462 93.844 16.6154C96.6387 19.3846 98.036 22.8462 98.036 27V41.5385C98.036 44.9862 96.8064 47.9215 94.3471 50.3446C91.9018 52.7815 88.9395 54 85.4601 54C84.3003 54 83.3083 53.5915 82.4838 52.7746C81.6734 51.9715 81.2682 50.9954 81.2682 49.8462C81.2682 48.6969 81.6734 47.7138 82.4838 46.8969C83.3083 46.0938 84.3003 45.6923 85.4601 45.6923C86.6199 45.6923 87.605 45.2838 88.4155 44.4669C89.2399 43.6638 89.6521 42.6877 89.6521 41.5385V40.1885Z" fill="white"/>
<path d="M29.4738 3.1824C25.6413 3.14916 22.495 6.21277 22.4595 10.0123C22.4411 12.1015 23.3976 14.0755 25.0208 15.3931L25.7868 40.3895C25.8074 41.084 26.3786 41.6378 27.0801 41.6439L31.1878 41.6795C31.5478 41.6826 31.8758 41.541 32.1142 41.3088C32.3405 41.0885 32.4872 40.7861 32.5031 40.4478L33.7107 15.4538C33.905 15.3009 34.1074 15.1562 34.2825 14.9858C35.588 13.7146 36.3502 11.9713 36.3664 10.1328C36.4009 6.33428 33.3083 3.21561 29.4738 3.1824Z" fill="white"/>
<path d="M132.533 16.5259C131.352 16.1121 130.069 16.0814 128.869 16.4383C127.669 16.7952 126.615 17.5212 125.859 18.5112C125.103 19.5012 124.684 20.7038 124.664 21.945C124.644 23.1862 125.023 24.4017 125.746 25.4155C126.469 26.4292 127.498 27.1888 128.686 27.5841C129.873 27.9795 131.157 27.9901 132.351 27.6146C133.545 27.239 134.588 26.4967 135.328 25.4951C136.068 24.4935 136.467 23.2845 136.468 22.0431V3.44058C144.45 5.92429 150.24 13.313 150.24 22.0431C150.24 32.8104 141.432 41.5385 130.566 41.5385C119.7 41.5385 110.891 32.8104 110.891 22.0431C110.891 11.2758 119.7 2.54769 130.566 2.54769C131.229 2.54769 131.886 2.58083 132.533 2.64517V16.5259Z" fill="white"/>
</svg>
