<svg width="26" height="26" viewBox="0 0 26 26" fill="none" xmlns="http://www.w3.org/2000/svg">
<path d="M3.82705 0.63L12.8337 9.63667L21.7937 0.676667C21.9916 0.466007 22.23 0.297487 22.4947 0.181212C22.7593 0.0649363 23.0447 0.00330014 23.3337 0C23.9526 0 24.546 0.245833 24.9836 0.683417C25.4212 1.121 25.667 1.71449 25.667 2.33333C25.6725 2.6194 25.6194 2.90357 25.5111 3.16839C25.4027 3.43321 25.2414 3.6731 25.037 3.87333L15.9604 12.8333L25.037 21.91C25.4216 22.2862 25.6471 22.7957 25.667 23.3333C25.667 23.9522 25.4212 24.5457 24.9836 24.9832C24.546 25.4208 23.9526 25.6667 23.3337 25.6667C23.0363 25.679 22.7397 25.6294 22.4625 25.5209C22.1853 25.4125 21.9337 25.2475 21.7237 25.0367L12.8337 16.03L3.85038 25.0133C3.65323 25.217 3.4177 25.3795 3.15738 25.4917C2.89707 25.6038 2.61713 25.6633 2.33371 25.6667C1.71487 25.6667 1.12138 25.4208 0.683797 24.9832C0.246212 24.5457 0.000379649 23.9522 0.000379649 23.3333C-0.00506051 23.0473 0.0480156 22.7631 0.156351 22.4983C0.264687 22.2335 0.425996 21.9936 0.63038 21.7933L9.70705 12.8333L0.63038 3.75667C0.245811 3.38044 0.0203054 2.87096 0.000379649 2.33333C0.000379649 1.71449 0.246212 1.121 0.683797 0.683417C1.12138 0.245833 1.71487 0 2.33371 0C2.89371 0.007 3.43038 0.233333 3.82705 0.63Z" fill="white"/>
</svg>
