<svg width="118" height="128" viewBox="0 0 118 128" fill="none" xmlns="http://www.w3.org/2000/svg">
<path d="M41.96 8.02999C41.6 6.75999 40.44 7.60999 39.46 7.84999C33.42 9.34999 29.8 4.22999 25 1.84999C22.96 0.83999 21.6 0.0899895 19.26 0.349989C17.06 0.599989 14.74 1.86999 14.28 4.01999C14.27 4.07999 14.29 4.14999 14.28 4.21999L14.18 4.24999L14.27 4.68999C14.27 4.95999 14.21 5.21999 14.27 5.51999C14.36 6.12999 14.63 6.68999 14.83 7.24999L20.41 33.11C19.73 32.97 19.02 32.87 18.23 32.82C14.92 32.59 12.01 33.69 9.71002 35.49C3.58002 40.25 2.41002 49.94 10.92 52.65C18.27 54.99 27.45 48.24 26.64 40.26C26.55 39.37 26.37 38.61 26.14 37.9L21.32 15.67C24.98 14.39 29.04 17 32.86 16.4C36.38 15.84 38.98 13.54 41.14 10.82C41.8 9.98999 42.26 9.09999 41.96 8.02999Z" fill="#292EAC"/>
<path d="M72.87 69.9C69.83 68.21 66.69 65.86 63.68 62.97C61.38 60.76 59.39 58.44 57.78 56.15C56.16 53.86 54.91 51.59 54.09 49.33C53.94 48.92 53.85 48.49 53.74 48.07L1.20002 111.94C-0.109978 113.31 2.38002 117.87 6.80002 122.11C11.2 126.35 15.85 128.68 17.17 127.31V127.3L78.95 72.33C78.42 72.21 77.91 72.09 77.39 71.92C75.9 71.43 74.4 70.75 72.87 69.9ZM63.88 20.34C62.9143 21.4853 62.0321 22.6984 61.24 23.97C59.01 27.53 57.57 32.24 57.74 37.45C57.8 39.06 58.01 40.73 58.4 42.41V42.43C59.61 47.71 62.54 53.25 67.98 58.49H67.99C73.43 63.73 79.08 66.45 84.4 67.44C84.41 67.44 84.42 67.44 84.43 67.45C84.61 67.48 84.77 67.53 84.95 67.55C86.47 67.81 87.97 67.92 89.44 67.91C94.64 67.87 99.28 66.24 102.75 63.89C103.97 63.06 105.15 62.13 106.27 61.11C103.31 59.4 94.43 53.86 83.01 42.88C71.56 31.88 65.69 23.22 63.88 20.34ZM107.7 17.21C95 4.98999 80.18 7.17999 69.92 14.69C70.07 14.87 70.22 15.06 70.34 15.27L70.38 15.33L70.54 15.61C70.7 15.86 70.94 16.25 71.28 16.77C72.3018 18.3038 73.3723 19.8046 74.49 21.27C77.44 25.15 82.05 30.65 88.68 37.02C101.5 49.36 110.8 54.33 111.11 54.49C111.32 54.6 111.51 54.73 111.69 54.87C118.79 44.32 120.41 29.42 107.7 17.21Z" fill="#292EAC"/>
</svg>
