<svg width="30" height="30" viewBox="0 0 30 30" fill="none" xmlns="http://www.w3.org/2000/svg">
<path fill-rule="evenodd" clip-rule="evenodd" d="M21.8716 19.9423C23.5519 17.8418 24.5566 15.1774 24.5566 12.2783C24.5566 5.49718 19.0594 0 12.2783 0C5.49718 0 0 5.49718 0 12.2783C0 19.0594 5.49718 24.5566 12.2783 24.5566C15.1774 24.5566 17.8418 23.5519 19.9423 21.8716L27.671 29.6004C28.2038 30.1332 29.0676 30.1332 29.6004 29.6004C30.1332 29.0676 30.1332 28.2038 29.6004 27.671L21.8716 19.9423ZM12.2783 21.8417C6.99654 21.8417 2.71482 17.5601 2.71482 12.2783C2.71482 6.99654 6.99654 2.71482 12.2783 2.71482C17.5601 2.71482 21.8417 6.99654 21.8417 12.2783C21.8417 17.5601 17.5601 21.8417 12.2783 21.8417Z" fill="#7209B7"/>
</svg>
