<svg width="31" height="30" viewBox="0 0 31 30" fill="none" xmlns="http://www.w3.org/2000/svg">
<path fill-rule="evenodd" clip-rule="evenodd" d="M22.3716 19.9423C24.0519 17.8418 25.0566 15.1774 25.0566 12.2783C25.0566 5.49718 19.5594 0 12.7783 0C5.99718 0 0.5 5.49718 0.5 12.2783C0.5 19.0594 5.99718 24.5566 12.7783 24.5566C15.6774 24.5566 18.3418 23.5519 20.4423 21.8716L28.171 29.6004C28.7038 30.1332 29.5676 30.1332 30.1004 29.6004C30.6332 29.0676 30.6332 28.2038 30.1004 27.671L22.3716 19.9423ZM12.7783 21.8417C7.49654 21.8417 3.21482 17.5601 3.21482 12.2783C3.21482 6.99654 7.49654 2.71482 12.7783 2.71482C18.0601 2.71482 22.3417 6.99654 22.3417 12.2783C22.3417 17.5601 18.0601 21.8417 12.7783 21.8417Z" fill="white"/>
</svg>
